<svg xmlns="http://www.w3.org/2000/svg" viewBox="0 0 512 512">
  <path d="M13 -43Q0 -43 0 -32Q0 -25 16 -18Q21 -15 30.5 -11.0Q40 -7 49 0Q123 50 222.0 194.0Q321 338 460 563Q555 719 655.5 855.5Q756 992 837 1081Q746 1017 663.5 979.5Q581 942 519 942Q474 942 440.0 966.0Q406 990 404 1034Q403 1073 426.0 1112.5Q449 1152 498 1202Q528 1234 565.0 1277.0Q602 1320 600 1349Q599 1387 562.5 1401.0Q526 1415 481 1415Q402 1415 335.0 1384.5Q268 1354 216 1311Q198 1295 191 1295Q180 1295 180 1306Q179 1320 204 1338Q256 1380 332.5 1408.0Q409 1436 483 1436Q563 1436 614.5 1407.5Q666 1379 669 1322Q671 1281 638.0 1220.0Q605 1159 556 1109Q510 1063 491.0 1040.5Q472 1018 473 1003Q473 968 522 968Q563 968 630.0 992.0Q697 1016 797.0 1082.5Q897 1149 1034 1277Q1048 1290 1071.0 1308.5Q1094 1327 1115.5 1342.0Q1137 1357 1148 1357Q1161 1357 1161 1347Q1162 1340 1154.0 1335.5Q1146 1331 1135 1324Q1126 1318 1109.5 1305.5Q1093 1293 1066 1267Q1037 1239 1015.0 1202.0Q993 1165 964.5 1110.5Q936 1056 890.5 975.0Q845 894 768 777Q656 604 565.5 487.0Q475 370 391.0 281.0Q307 192 212 102Q329 181 479.0 288.5Q629 396 791.0 520.0Q953 644 1111.0 772.0Q1269 900 1403 1018Q1402 1027 1402 1044Q1402 1133 1433.5 1220.0Q1465 1307 1516.5 1378.0Q1568 1449 1628.5 1491.5Q1689 1534 1746 1534Q1778 1534 1800.0 1515.0Q1822 1496 1822 1453Q1822 1368 1728.5 1246.0Q1635 1124 1456 968Q1478 901 1523.0 868.5Q1568 836 1609 836Q1629 836 1642 841Q1659 847 1664 847Q1678 847 1678 840Q1678 831 1658 822Q1640 813 1607 813Q1545 813 1496.5 848.5Q1448 884 1423 940Q1201 750 864.5 512.0Q528 274 92 -6Q60 -26 39.5 -34.5Q19 -43 13 -43ZM1442 1053Q1594 1191 1690.5 1300.5Q1787 1410 1787 1465Q1787 1486 1772.5 1497.5Q1758 1509 1746 1509Q1695 1509 1641.5 1472.5Q1588 1436 1543.0 1373.0Q1498 1310 1470.0 1230.5Q1442 1151 1442 1064Z" fill="#C13B22" opacity="0.92" stroke="#C13B22" stroke-width="50" stroke-linejoin="round" transform="translate(155.9,414.5) scale(0.1966,-0.1966)"/>
  <path d="M1040 -25Q972 -25 887.0 -10.0Q802 5 717.5 26.5Q633 48 566 67Q410 -2 220 -2Q107 -2 53.5 24.0Q0 50 0 80Q0 127 62.0 154.5Q124 182 224 182Q299 182 377.5 164.0Q456 146 551 112Q628 162 711.0 252.5Q794 343 899 486Q692 493 566.0 576.5Q440 660 440 790Q440 876 495.5 957.5Q551 1039 640.5 1092.0Q730 1145 833 1145Q850 1145 852.5 1140.5Q855 1136 855 1133Q855 1128 851.0 1125.5Q847 1123 823 1121Q720 1111 651.5 1062.5Q583 1014 549.0 947.0Q515 880 515 814Q515 660 625.0 588.5Q735 517 920 515Q952 559 985.5 608.0Q1019 657 1056 712Q1223 961 1368.5 1112.5Q1514 1264 1652.0 1332.5Q1790 1401 1933 1401Q2007 1401 2053.0 1368.0Q2099 1335 2099 1280Q2099 1196 2034.5 1098.0Q1970 1000 1860.5 903.0Q1751 806 1614.0 721.0Q1477 636 1331.0 576.5Q1185 517 1049 496Q940 350 833.0 249.5Q726 149 612 89Q698 58 804.5 41.0Q911 24 1047 24Q1159 24 1227.0 45.5Q1295 67 1329.5 92.0Q1364 117 1374 127Q1389 142 1394 131Q1397 124 1391.5 113.5Q1386 103 1378 95Q1297 22 1212.0 -1.5Q1127 -25 1040 -25ZM1073 528Q1205 551 1341.0 610.0Q1477 669 1600.5 751.0Q1724 833 1821.5 926.0Q1919 1019 1975.5 1112.0Q2032 1205 2032 1286Q2032 1321 2002.0 1349.5Q1972 1378 1927 1378Q1766 1378 1609.5 1248.5Q1453 1119 1306 880Q1245 780 1187.0 692.0Q1129 604 1073 528ZM206 22Q292 22 364.0 35.0Q436 48 506 85Q439 104 365.5 117.5Q292 131 232 131Q28 131 28 81Q28 65 75.5 43.5Q123 22 206 22Z" fill="#FFFFFF" transform="translate(-40.2,416.0) scale(0.2384,-0.2384)"/>
</svg>