<svg xmlns="http://www.w3.org/2000/svg" viewBox="0 0 512 512">
  <defs>
    <radialGradient id="wax" cx="40%" cy="35%" r="85%">
      <stop offset="0%" stop-color="#B14A36"/>
      <stop offset="55%" stop-color="#8C0902"/>
      <stop offset="100%" stop-color="#4A0501"/>
    </radialGradient>
  </defs>
  <path d="M256 36 C330 28 398 62 436 118 C474 176 482 252 452 318 C424 382 362 432 290 446 C214 460 134 430 88 370 C44 312 36 228 66 162 C98 96 180 44 256 36 Z" fill="url(#wax)"/>
  <path d="M256 36 C330 28 398 62 436 118 C474 176 482 252 452 318 C424 382 362 432 290 446 C214 460 134 430 88 370 C44 312 36 228 66 162 C98 96 180 44 256 36 Z" fill="none" stroke="#210100" stroke-width="4" opacity="0.35"/>
  <circle cx="256" cy="244" r="150" fill="none" stroke="#E6A341" stroke-width="3" opacity="0.7"/>
  <path d="M854 -139Q958 -139 1022 -98L1029 -106Q943 -225 815 -238Q788 -241 768.5 -241.0Q749 -241 723.5 -239.5Q698 -238 652.0 -226.0Q606 -214 571.0 -201.5Q536 -189 490.0 -168.5Q444 -148 414.0 -132.5Q384 -117 342.5 -95.5Q301 -74 270.0 -59.0Q239 -44 210 -33Q128 0 42 0V10H55Q81 10 99.5 28.0Q118 46 119 73V627Q118 654 99.5 672.0Q81 690 55 690H42V700H346L345 690H335Q297 690 278 659Q269 645 269 627V47Q269 14 282.0 1.5Q295 -11 311 -16Q687 -139 854 -139Z" fill="#FAF0C0"  transform="translate(108.3,285.5) scale(0.1807,-0.1807)"/>
  <path d="M926 948Q951 948 968 946V936Q906 933 861 906Q810 875 788.5 848.5Q767 822 754.5 805.5Q742 789 730 766Q711 731 695 697L427 111Q381 12 378 -20H369L66 633Q51 661 28.0 675.5Q5 690 -19 690H-27V700H291V690H283Q261 690 250.5 676.5Q240 663 240.0 651.0Q240 639 244 627L414 214L621 697Q668 808 731 864Q824 948 926 948Z" fill="#F0C75E"  transform="translate(229.4,325.5) scale(0.1756,-0.1756)"/>
  <ellipse cx="180" cy="130" rx="55" ry="28" fill="#FFFFFF" opacity="0.12" transform="rotate(-25 180 130)"/>
</svg>